<svg xmlns="http://www.w3.org/2000/svg" width="550" height="550" enable-background="new 0 0 550 550" viewBox="0 0 550 550"><path d="M458.599 363H117.514C57.639 363 8.927 314.344 8.927 254.536c0-26.316 9.541-51.687 26.866-71.438 15.265-17.403 35.63-29.43 58.027-34.421 4.088-65.822 58.938-118.121 125.773-118.121 24.085 0 47.5 6.822 67.714 19.729 16.356 10.444 30.028 24.452 40.031 40.921 17.279-10.917 37.511-16.834 58.079-16.834 59.89 0 108.613 48.712 108.613 108.587 0 7.769-.793 15.411-2.364 22.823 12.858 5.656 24.276 14.626 32.78 25.879C535.276 245.993 541 263.065 541 281.033 541 326.244 504.035 363 458.599 363zM219.594 50.557c-58.458 0-106.018 47.558-106.018 106.014l.004.488c0 4.981-3.667 9.204-8.599 9.901-20.931 2.961-40.162 13.377-54.153 29.327-14.123 16.101-21.901 36.788-21.901 58.249 0 48.779 39.74 88.464 88.587 88.464h341.085C493.007 343 521 315.216 521 281.064c0-27.131-18.166-51.582-44.175-59.492-2.544-.773-4.675-2.528-5.922-4.875s-1.509-5.095-.726-7.636c2.557-8.302 3.854-17.083 3.854-26.101 0-48.847-39.752-88.587-88.613-88.587-20.297 0-39.393 6.677-55.224 19.311-2.373 1.894-5.476 2.609-8.44 1.938-2.962-.669-5.459-2.647-6.788-5.378-8.58-17.625-21.865-32.53-38.422-43.101C259.551 56.292 239.857 50.557 219.594 50.557zM114.766 445.754c-1.696 0-3.415-.433-4.99-1.342-4.783-2.761-6.422-8.877-3.66-13.66l23.401-40.533c2.761-4.783 8.876-6.422 13.66-3.66 4.783 2.761 6.422 8.877 3.66 13.66l-23.401 40.533C121.584 443.96 118.222 445.754 114.766 445.754zM211.36 445.754c-1.696 0-3.415-.433-4.99-1.342-4.783-2.761-6.422-8.877-3.66-13.66l23.401-40.533c2.76-4.783 8.875-6.422 13.66-3.66 4.783 2.761 6.422 8.877 3.66 13.66l-23.401 40.533C218.179 443.96 214.816 445.754 211.36 445.754zM307.955 445.754c-1.696 0-3.415-.433-4.99-1.342-4.783-2.762-6.422-8.877-3.66-13.66l23.402-40.533c2.762-4.783 8.875-6.422 13.66-3.66 4.783 2.762 6.422 8.877 3.66 13.66l-23.402 40.533C314.772 443.96 311.411 445.754 307.955 445.754zM404.55 445.754c-1.696 0-3.415-.433-4.99-1.342-4.783-2.762-6.422-8.877-3.66-13.66l23.402-40.533c2.763-4.783 8.876-6.422 13.66-3.66 4.783 2.762 6.422 8.877 3.66 13.66l-23.402 40.533C411.367 443.96 408.006 445.754 404.55 445.754zM73.937 519.445c-1.696 0-3.415-.433-4.99-1.342-4.783-2.761-6.422-8.877-3.66-13.66l23.401-40.533c2.761-4.782 8.875-6.421 13.66-3.66 4.783 2.761 6.422 8.877 3.66 13.66l-23.401 40.533C80.755 517.651 77.393 519.445 73.937 519.445zM170.531 519.445c-1.696 0-3.415-.433-4.99-1.342-4.783-2.762-6.422-8.877-3.66-13.66l23.402-40.533c2.762-4.782 8.876-6.421 13.66-3.66 4.783 2.762 6.422 8.877 3.66 13.66l-23.402 40.533C177.349 517.651 173.987 519.445 170.531 519.445zM267.126 519.445c-1.696 0-3.415-.433-4.99-1.342-4.783-2.762-6.422-8.877-3.66-13.66l23.402-40.533c2.762-4.782 8.875-6.421 13.66-3.66 4.783 2.762 6.422 8.877 3.66 13.66l-23.402 40.533C273.943 517.651 270.582 519.445 267.126 519.445zM363.722 519.445c-1.696 0-3.415-.433-4.99-1.342-4.783-2.761-6.422-8.877-3.66-13.66l23.401-40.533c2.76-4.782 8.876-6.421 13.66-3.66 4.783 2.761 6.422 8.877 3.66 13.66l-23.401 40.533C370.54 517.651 367.178 519.445 363.722 519.445z"/></svg>