<svg xmlns="http://www.w3.org/2000/svg" fill-rule="evenodd" stroke-linejoin="round" stroke-miterlimit="2" clip-rule="evenodd" viewBox="0 0 8 8"><path d="M.24 4.08c0 .318.126.623.351.849.226.225.531.351.849.351l4.56 0c.795 0 1.44-.645 1.44-1.44l0 0c0-.719-.526-1.314-1.215-1.422-.109-.823-.813-1.458-1.665-1.458-.583 0-1.096.297-1.398.748-.091-.018-.185-.028-.282-.028-.713 0-1.306.519-1.42 1.2 0 0-.02 0-.02 0-.318 0-.623.126-.849.351-.225.226-.351.531-.351.849zm6.72-.24l0 0c0-.53-.43-.96-.96-.96-.132 0-.24-.108-.24-.24 0-.662-.538-1.2-1.2-1.2-.467 0-.871.267-1.07.656-.054.107-.18.157-.293.118-.099-.035-.206-.054-.317-.054-.53 0-.96.43-.96.96 0 .133-.107.24-.24.24l-.24 0c-.191 0-.374.076-.509.211-.135.135-.211.318-.211.509 0 .191.076.374.211.509.135.135.318.211.509.211 0 0 4.56 0 4.56 0 .53 0 .96-.43.96-.96zM1.61 6.65l.48-.48c.093-.094.093-.246 0-.34-.094-.093-.246-.093-.34 0l-.48.48c-.093.094-.093.246 0 .34.094.093.246.093.34 0zM3.05 6.65l.48-.48c.093-.094.093-.246 0-.34-.094-.093-.246-.093-.34 0l-.48.48c-.093.094-.093.246 0 .34.094.093.246.093.34 0zM4.49 6.65l.48-.48c.093-.094.093-.246 0-.34-.094-.093-.246-.093-.34 0l-.48.48c-.093.094-.093.246 0 .34.094.093.246.093.34 0zM5.93 6.65l.48-.48c.093-.094.093-.246 0-.34-.094-.093-.246-.093-.34 0l-.48.48c-.093.094-.093.246 0 .34.094.093.246.093.34 0z"/></svg>