<svg xmlns="http://www.w3.org/2000/svg" viewBox="0 0 64 64"><path d="M58.18 31.32a12.37 12.37 0 0 0 .93-4.59 12 12 0 0 0-12-12h-.63a9 9 0 0 0-8.6-6.64 8.7 8.7 0 0 0-6.93 3.3 16.4 16.4 0 0 0-3.49-.34c-.53 0-1.05 0-1.56.07a16.32 16.32 0 0 0-10.37 5l-.09.1c-.24.26-.47.52-.69.79s-.24.29-.35.44-.26.35-.39.53-.37.54-.54.82l-.15.25a15.79 15.79 0 0 0-2 5.58s0 .07 0 .11c0 .23-.08.45-.11.68a9.23 9.23 0 0 0 1 18.39H54.24a6.93 6.93 0 0 0 3.94-12.51zm-4 10.51h-42a7.23 7.23 0 0 1-.09-14.45l.91 0 .06-.9a14.41 14.41 0 0 1 28.78 1 14.72 14.72 0 0 1-.66 4.32A1 1 0 0 0 41.83 33a1 1 0 0 0 .29.05 1 1 0 0 0 1-.71 16.68 16.68 0 0 0 .75-4.91 17.15 17.15 0 0 0-.19-2.4 8.8 8.8 0 0 1 3 .81 8 8 0 0 1 3.68 10.63 1 1 0 0 0 .47 1.34 1.07 1.07 0 0 0 .43.09 1 1 0 0 0 .9-.57 10 10 0 0 0-4.63-13.29 10.28 10.28 0 0 0-4.3-1A16.45 16.45 0 0 0 33 12.05a6.77 6.77 0 0 1 4.83-2A7 7 0 0 1 44.69 16l.17 1.08 1.06-.26a4.84 4.84 0 0 1 1.17-.09 10 10 0 0 1 10 10A10.68 10.68 0 0 1 56 31.28l-.39.86.83.45a4.93 4.93 0 0 1-2.25 9.24zM23.77 46.4a1 1 0 0 0-1.29.57l-1.54 4a1 1 0 0 0 .58 1.29.92.92 0 0 0 .36.07 1 1 0 0 0 .93-.65l1.54-4A1 1 0 0 0 23.77 46.4zM42.36 46.4a1 1 0 0 0-1.29.57l-1.54 4a1 1 0 0 0 .58 1.29.91.91 0 0 0 .35.07 1 1 0 0 0 .94-.65l1.54-4A1 1 0 0 0 42.36 46.4zM33.7 46.39a1 1 0 0 0-1.28.6L29.7 54.57a1 1 0 0 0 .6 1.28 1 1 0 0 0 .34.06 1 1 0 0 0 .94-.66l2.72-7.58A1 1 0 0 0 33.7 46.39z"/></svg>